<?xml version="1.0" encoding="utf-8"?>
<!-- Generator: Adobe Illustrator 27.5.0, SVG Export Plug-In . SVG Version: 6.00 Build 0)  -->
<svg version="1.1" xmlns="http://www.w3.org/2000/svg" xmlns:xlink="http://www.w3.org/1999/xlink" x="0px" y="0px"
	 viewBox="0 0 1200 800" style="enable-background:new 0 0 1200 800;" xml:space="preserve">
<g id="Background">
	<rect style="fill:#F5DEDE;" width="1200" height="800"/>
</g>
<g id="Graphic_Elements">
	<g>
		<defs>
			<rect id="SVGID_1_" width="1200" height="800"/>
		</defs>
		<clipPath id="SVGID_00000168814928221737593050000014847061434787816127_">
			<use xlink:href="#SVGID_1_"  style="overflow:visible;"/>
		</clipPath>
		<g style="clip-path:url(#SVGID_00000168814928221737593050000014847061434787816127_);">
			<g>
				<path style="fill:#DFB7B4;" d="M874.054,322.596c23.791-22.16,52.172-39.397,69.764-67.775
					c27.932-45.059,19.155-100.549,13.071-150.067C950.804,55.237,953.267-6.56,992.206-39.97
					c32.479-27.867,77.016-23.008,110.4-49.327c47.267-37.266,50.455-117.684,95.442-158.689
					c45.2-41.2,105.518-21.535,152.907,0.433c44.893,20.811,91.16,42.721,121.75,83.804c30.59,41.084,41.212,106.991,10.901,158.362
					c-29.001,49.151-88.732,76.341-103.886,131.017c-12.231,44.13,10.895,88.542-4.122,132.006
					c-13.973,40.441-54.832,62.86-91.574,74.379c-36.741,11.518-76.428,18.683-106.512,47.705
					c-46.875,45.22-53.536,127.565-102.928,168.973c-60.492,50.713-159.884,14.85-224.754,18.413
					C741.663,573.048,814.714,377.866,874.054,322.596z"/>
				<path style="fill:#BE7E91;" d="M741.034,369.39c55.519,4.635,96.468,44.923,153.581,53.743
					c91.064,14.061,152.695-94.775,241.432-120.729c92.406-27.027,195.532,66.442,174.079,157.776
					c-15.645,66.606-77.144,107.317-114.319,163.447c-41.521,62.694-65.385,101.129-131.865,150.383
					c-79.542,58.931-160.694,112.097-247.218,160.202c-99.485,55.312-201.9,108.599-310.452,135.635
					c-111.653,27.809-226.977,14.859-334.155-0.312c-28.051-3.97-320.602-92.509-297.577-124.767
					c60.712-85.058,137.257-191.107,238.12-236.09c84.935-37.879,178.846-33.971,266.558-45.044
					c72.184-9.112,143.062-40.399,175.612-109.475c32.674-69.338,53.655-156.444,140.558-180.297
					C711.881,369.336,726.928,368.212,741.034,369.39z"/>
				<g>
					<path style="fill:#D4ACC7;" d="M-342.545,829.8c-15.327-19.67-8.701-44.416,38.028-79.12
						c133.576-99.201,307.378-149.319,486.66-90.215c87.131,28.728,166.793,78.934,255.91,100.18
						c158.75,37.847,346.048,13.033,456.821-97.162c52.565-52.291,87.921-118.757,142.215-169.445
						c67.578-63.088,163.623-98.256,261.3-95.678c30.879,0.815,66.551,8.079,82.499,33.834c8.902,14.376,9.543,31.5,9.938,47.771
						c1.896,78.147,3.56,157.921-21.145,231.176c-25.603,75.917-77.799,139.751-129.094,201.999
						c-40.107,48.671-80.238,97.419-123.519,143.586c-40.946,43.676-96.058,79.742-132.876,125.933
						c-61.11,76.668-125.212,138.96-241.798,123.616c-211.402-27.822-433.176-156.234-622.148-248.319
						C17.622,1007.949-78.183,942.215-185.371,901.006C-246.147,877.64-319.393,859.512-342.545,829.8z"/>
				</g>
				<g>
					<path style="fill:#B687A2;" d="M302.634,821.885c18.226,45.964-22.124,92.03-59.376,124.65
						c-11.035,9.663-22.872,19.667-37.508,22.328c-13.984,2.542-28.267-2.041-41.8-6.561
						C99.485,940.771,35.019,919.24-29.447,897.708c-60.899-20.34-124.371-42.253-168.761-87.89
						c-15.969-16.417-29.096-35.777-36.159-57.27c-15.975-48.613,0.412-100.741,16.724-148.887
						c18.522-54.668,44.77-116.84,101.741-132.13C16.679,435.951,31.326,604.314,79.64,681.715
						C129.496,761.587,269.552,738.465,302.634,821.885z"/>
				</g>
			</g>
		</g>
	</g>
</g>
</svg>
