<?xml version="1.0" standalone="no"?>
<!DOCTYPE svg PUBLIC "-//W3C//DTD SVG 20010904//EN"
 "http://www.w3.org/TR/2001/REC-SVG-20010904/DTD/svg10.dtd">
<svg version="1.0" xmlns="http://www.w3.org/2000/svg"
 width="583.000000pt" height="583.000000pt" viewBox="0 0 583.000000 583.000000"
 preserveAspectRatio="xMidYMid meet">
<metadata>
Created by potrace 1.16, written by Peter Selinger 2001-2019
</metadata>
<g transform="translate(0.000000,583.000000) scale(0.100000,-0.100000)"
fill="#000000" stroke="none">
<path d="M1830 4915 c-14 -18 -34 -38 -45 -44 -11 -5 -36 -20 -55 -32 -19 -13
-32 -19 -28 -14 4 4 3 14 -3 22 -9 10 -8 13 4 13 8 0 17 -5 19 -12 3 -8 6 -7
10 4 5 11 0 15 -20 14 -22 -1 -26 -6 -27 -33 -1 -21 -9 -38 -25 -51 -14 -11
-27 -18 -30 -16 -2 3 2 9 10 15 12 7 10 8 -7 6 -12 -2 -26 -6 -29 -10 -4 -4
-15 -7 -24 -7 -10 0 -24 -7 -31 -17 -13 -15 -12 -15 9 -5 68 36 65 35 58 17
-3 -9 -6 -18 -6 -21 0 -2 -7 -1 -15 2 -8 3 -22 -1 -30 -10 -19 -19 -5 -22 14
-3 10 9 10 7 0 -11 -8 -12 -20 -20 -26 -17 -7 2 -12 1 -12 -3 3 -20 -2 -32
-11 -27 -6 4 -8 10 -5 15 3 5 0 12 -6 16 -8 4 -9 3 -5 -4 4 -7 1 -12 -8 -12
-9 0 -16 4 -16 8 0 13 -43 7 -48 -6 -2 -7 3 -15 12 -18 9 -3 16 -14 17 -23 0
-12 3 -10 11 7 12 23 38 31 38 10 -1 -20 -57 -81 -64 -69 -4 5 2 14 11 20 16
9 14 11 -14 11 -5 0 -9 -15 -9 -33 -3 -57 -3 -59 -20 -53 -15 6 -15 4 -3 -11
12 -14 12 -16 0 -8 -11 6 -13 4 -9 -7 4 -8 -6 -30 -20 -49 -15 -18 -27 -40
-27 -49 0 -8 -7 -30 -14 -49 -13 -31 -15 -32 -28 -15 -7 9 -16 15 -19 11 -4
-3 1 -13 9 -22 9 -8 14 -22 11 -30 -9 -21 -24 -19 -18 3 5 14 4 14 -6 -2 -9
-14 -10 -20 -1 -26 16 -9 10 -32 -12 -48 -13 -10 -15 -17 -8 -26 7 -8 6 -20
-3 -37 -14 -28 -16 -34 -16 -54 0 -9 -6 -12 -17 -9 -15 5 -15 3 1 -10 15 -12
16 -16 5 -16 -8 0 -20 -9 -26 -20 -10 -15 -10 -18 0 -15 26 10 35 -9 27 -60
-4 -27 -5 -56 -2 -64 3 -8 1 -12 -5 -8 -6 4 -9 -13 -7 -49 3 -47 1 -54 -14
-52 -12 2 -18 -5 -19 -22 -2 -16 0 -20 5 -10 4 8 12 16 19 17 10 2 12 -67 12
-300 0 -319 -6 -447 -19 -411 -5 11 -4 40 1 65 13 72 8 90 -7 21 -10 -47 -11
-69 -2 -90 6 -15 12 -72 13 -127 2 -68 0 -86 -5 -55 l-7 45 -1 -42 c-1 -23 3
-45 8 -48 6 -3 10 -27 10 -53 0 -34 -3 -43 -10 -32 -6 9 -10 10 -10 3 0 -7 6
-18 13 -25 19 -17 9 -51 -11 -43 -14 5 -14 4 0 -12 8 -10 13 -23 11 -30 -2 -6
1 -14 6 -18 6 -3 11 -12 11 -18 0 -7 -4 -6 -10 3 -8 13 -10 12 -10 -2 0 -10 4
-18 9 -18 4 0 8 -153 8 -340 -1 -192 -5 -333 -10 -325 -9 17 -27 11 -27 -8 0
-7 4 -6 11 3 8 12 9 9 5 -12 -5 -22 -3 -26 9 -22 12 5 14 -3 12 -44 -1 -28 2
-48 6 -45 4 3 7 -13 6 -34 -1 -21 2 -47 6 -57 7 -15 5 -17 -6 -11 -11 7 -12 6
-3 -6 15 -19 26 -79 14 -79 -5 0 -6 -8 -3 -17 5 -12 2 -15 -10 -10 -9 3 -17 2
-17 -3 0 -17 28 -11 40 8 9 14 10 13 4 -7 -4 -15 -2 -21 4 -17 5 3 13 -1 16
-10 3 -8 2 -13 -2 -10 -5 3 -9 -1 -9 -8 0 -9 7 -12 16 -8 12 4 11 0 -4 -19
-15 -18 -16 -20 -2 -10 11 9 17 10 18 2 4 -35 20 -71 31 -71 6 0 5 -7 -3 -17
-8 -9 -9 -14 -3 -10 15 9 38 -19 28 -34 -5 -8 -3 -9 6 -4 10 6 12 4 7 -9 -4
-9 -3 -15 2 -11 12 7 53 -44 45 -56 -3 -5 0 -9 6 -9 21 0 130 -114 125 -130
-2 -8 0 -22 6 -30 8 -12 9 -10 4 7 -6 22 12 43 24 26 3 -5 21 -19 39 -32 18
-12 29 -27 26 -33 -4 -6 -2 -8 4 -4 6 3 16 -2 22 -11 11 -17 11 -17 6 -1 -4
15 -2 16 13 6 12 -7 17 -19 13 -32 -4 -21 -4 -21 11 -1 14 17 16 17 17 4 0
-21 -24 -41 -36 -31 -5 4 -6 3 -1 -2 4 -5 26 -11 50 -12 31 -2 37 0 25 7 -25
14 -12 37 18 31 23 -4 35 -22 14 -22 -5 0 -10 -5 -10 -12 0 -9 3 -9 12 0 14
14 32 16 23 3 -9 -15 37 -3 47 11 5 8 11 9 16 3 4 -5 23 -10 42 -10 19 1 39
-1 43 -3 15 -7 485 -7 481 0 -6 10 70 6 84 -5 7 -5 15 -7 19 -3 3 3 1 6 -5 6
-7 0 -12 4 -12 9 0 5 6 9 13 8 36 -1 57 4 52 13 -3 5 -2 10 4 10 6 0 15 -9 21
-20 13 -24 45 -28 36 -4 -3 9 -6 18 -6 20 0 2 -5 4 -11 4 -8 0 -8 -5 1 -15 7
-9 8 -15 2 -15 -14 0 -23 28 -11 36 5 3 16 0 24 -6 11 -9 18 -9 29 3 10 9 31
14 56 13 22 -1 40 1 40 4 0 9 180 31 192 24 4 -3 8 -1 8 4 0 14 41 7 51 -9 7
-12 9 -11 9 2 0 23 29 32 48 17 9 -7 13 -8 10 -3 -4 6 2 17 14 24 11 7 17 8
13 2 -10 -17 26 -26 39 -10 18 25 44 30 52 11 4 -9 6 -20 6 -24 -1 -5 3 -8 8
-8 14 0 13 13 -2 28 -6 6 -9 14 -6 18 10 9 70 18 125 17 35 0 50 4 46 11 -3 6
0 5 8 -1 7 -7 18 -13 23 -13 6 0 5 4 -3 9 -22 14 93 35 118 22 29 -16 38 -13
15 5 -17 14 -17 15 -1 10 10 -3 32 1 48 10 24 12 34 13 45 3 12 -10 13 -9 8 5
-5 12 0 16 20 17 35 2 37 3 64 17 12 7 27 10 32 7 6 -3 10 -1 10 5 0 6 5 8 10
5 6 -3 10 -2 10 3 0 6 7 12 15 16 9 3 15 0 15 -10 0 -8 -4 -13 -8 -10 -5 3 -9
-2 -9 -10 0 -10 4 -11 10 -5 7 7 15 5 24 -7 11 -15 12 -13 3 11 -6 18 -6 26 0
22 17 -10 50 14 43 32 -5 13 -2 15 11 10 12 -5 19 0 26 16 8 19 15 10 11 -15
0 -4 6 -5 14 -2 8 4 13 10 10 14 -3 5 -1 11 5 15 5 3 10 11 10 18 0 6 -7 2
-15 -9 -8 -10 -15 -15 -15 -10 0 6 37 46 83 90 45 44 73 73 62 66 -20 -15 -20
-15 -1 8 11 12 25 21 32 18 8 -3 10 3 6 16 -4 15 3 28 22 43 16 12 31 38 35
56 4 19 13 33 20 31 7 -1 10 2 7 7 -9 14 5 42 17 34 6 -4 8 0 4 10 -3 9 -2 19
4 23 6 3 8 12 5 20 -3 8 -1 14 5 14 6 0 7 5 3 12 -4 7 -3 8 4 4 7 -4 12 -1 12
9 0 9 -4 13 -10 10 -6 -3 -7 1 -4 10 6 14 9 13 21 -5 13 -19 13 -23 -4 -43
-12 -14 -13 -17 -2 -9 9 6 18 10 20 7 3 -2 5 5 6 15 1 11 -2 22 -8 25 -5 4 -9
16 -9 28 0 15 3 18 8 9 6 -8 9 -2 9 17 0 25 -2 27 -11 15 -10 -13 -12 -12 -13
6 -1 12 5 24 13 27 7 3 12 9 9 14 -6 9 -7 553 -2 1707 1 369 -1 673 -5 675 -3
1 -10 15 -14 31 -5 23 -4 27 7 22 9 -5 9 -3 -1 6 -9 7 -14 22 -12 33 2 15 1
16 -6 7 -6 -10 -9 -5 -8 16 1 17 6 28 11 25 6 -3 -1 5 -15 16 -14 11 -21 21
-16 21 6 0 2 6 -9 13 -13 10 -16 21 -11 40 3 14 2 29 -4 32 -7 4 -6 13 1 27 8
16 8 19 -1 13 -9 -5 -10 -1 -5 14 5 15 2 21 -10 21 -9 0 -13 5 -9 11 3 6 -5 3
-20 -6 -30 -20 -35 -31 -8 -16 20 11 52 -2 33 -13 -6 -4 -11 -4 -11 0 0 3 -6
1 -14 -5 -10 -9 -16 -8 -26 4 -7 8 -9 15 -5 15 4 0 2 7 -5 15 -11 13 -10 15 6
9 15 -5 16 -4 4 4 -8 6 -18 8 -22 6 -4 -3 -13 -2 -19 2 -8 5 -8 9 1 14 9 6 9
12 0 30 -11 21 -10 22 6 16 15 -6 17 -5 7 5 -20 20 -41 -4 -23 -26 16 -19 1
-19 -27 0 -14 10 -20 22 -17 33 5 14 4 14 -5 2 -5 -8 -14 -11 -18 -6 -4 4 1
14 11 22 27 19 30 44 5 39 -10 -2 -23 4 -29 13 -5 9 -10 12 -10 5 0 -6 5 -15
10 -18 6 -4 7 -12 3 -18 -4 -8 -1 -7 9 1 10 8 19 9 22 4 3 -6 -2 -13 -12 -17
-27 -12 -43 -14 -36 -4 3 5 -1 9 -9 9 -19 0 -49 34 -40 45 5 5 -1 3 -11 -5
-13 -10 -17 -10 -12 -2 5 8 1 12 -12 12 -10 0 -28 9 -41 21 -12 11 -28 18 -36
15 -21 -8 -92 19 -76 29 8 4 16 2 21 -5 5 -9 9 -8 13 2 4 11 -4 14 -28 14 -20
-1 -31 -5 -27 -11 3 -5 -2 -4 -11 4 -9 7 -17 9 -17 4 0 -5 -9 -9 -20 -10 -11
-1 -19 1 -16 5 5 9 -416 6 -451 -3 -16 -4 -22 -2 -18 5 3 5 1 10 -4 10 -6 0
-11 -3 -11 -7 0 -5 -124 -9 -276 -11 -214 -2 -279 0 -292 10 -12 10 -14 10 -8
1 5 -10 -11 -13 -72 -13 -43 0 -81 3 -84 6 -8 7 -438 11 -438 4 0 -3 -9 -6
-20 -7 -11 -1 -18 2 -16 6 3 4 -5 8 -17 8 -15 2 -18 0 -9 -6 10 -6 8 -10 -8
-14 -17 -4 -20 -2 -16 11 5 13 3 12 -9 -2 -8 -11 -15 -16 -15 -12 0 5 -7 3
-15 -4 -8 -7 -15 -9 -15 -6 0 4 -10 0 -22 -8 -25 -18 -48 -21 -48 -6 0 5 8 7
18 4 13 -5 14 -4 3 4 -10 7 -8 13 10 26 15 10 18 16 9 16 -8 0 -26 -16 -40
-35z m970 -453 c49 -12 25 -18 -140 -37 -169 -19 -251 -43 -332 -98 -53 -35
-68 -53 -96 -107 -29 -58 -33 -77 -39 -176 l-6 -111 -44 -23 c-24 -13 -49 -32
-54 -42 -23 -44 -29 -12 -29 170 0 206 6 238 53 309 37 55 128 108 212 123 59
11 425 5 475 -8z m893 -60 c73 -36 118 -83 136 -141 13 -45 15 -427 2 -435 -5
-3 -15 1 -22 10 -18 21 -78 51 -131 64 -38 10 -51 9 -78 -5 -17 -9 -37 -30
-44 -47 l-13 -30 -23 36 c-43 71 -67 76 -352 78 -154 1 -226 4 -183 8 39 4 65
7 59 8 -12 2 -17 62 -5 62 4 0 8 21 9 48 3 67 6 86 16 93 5 4 5 13 0 20 -9 15
-12 59 -4 64 3 2 5 22 5 44 0 23 3 41 7 41 13 0 9 30 -4 31 -10 0 -10 2 -1 5
7 3 10 11 7 18 -10 25 24 34 186 46 91 7 167 14 170 17 3 3 48 3 101 1 83 -3
104 -8 162 -36z m-1101 -794 c39 -65 123 -137 236 -199 53 -30 117 -72 142
-94 49 -43 39 -24 -21 40 -20 22 -53 65 -72 95 -37 60 -84 150 -72 138 5 -5
17 6 27 23 17 28 23 30 56 26 20 -3 50 -9 66 -13 25 -6 33 -2 55 23 23 27 34
31 95 37 l69 6 -6 -49 c-5 -39 -2 -51 14 -64 10 -9 19 -25 19 -34 0 -10 -41
-76 -90 -146 l-90 -129 13 -40 14 -40 22 35 c27 43 116 127 215 201 91 69 187
171 221 234 l26 47 -4 -75 c-3 -56 -11 -88 -30 -127 -34 -67 -127 -166 -233
-249 -88 -68 -104 -88 -104 -127 0 -27 21 -48 107 -106 200 -133 299 -295 291
-475 l-3 -81 43 -60 c23 -33 42 -70 42 -83 0 -26 32 -42 85 -42 26 0 33 -3 29
-15 -11 -27 34 -17 53 11 15 24 17 25 24 8 12 -30 10 -298 -2 -355 -15 -69
-63 -121 -153 -163 -109 -52 -190 -66 -373 -65 -87 0 -178 4 -203 7 -42 7 -45
10 -43 35 2 23 -2 28 -19 25 -12 -2 -23 3 -26 11 -3 10 1 12 17 8 17 -4 24 0
33 21 5 15 14 35 19 44 5 10 9 29 9 42 0 14 5 28 10 31 6 3 10 19 10 35 0 16
4 32 10 35 5 3 10 17 10 29 0 13 7 29 15 36 21 17 19 67 -2 78 -10 5 -151 12
-313 16 -309 6 -508 19 -598 37 -30 6 -56 9 -58 6 -3 -2 -7 -75 -10 -162 -3
-87 -11 -173 -18 -193 l-12 -35 -22 51 c-20 47 -22 67 -22 252 0 193 1 202 20
207 18 5 18 7 5 26 -18 25 -19 70 -4 99 17 31 71 50 108 37 38 -13 51 -35 51
-84 0 -40 38 -108 70 -125 35 -19 168 -40 248 -40 l77 0 -25 21 c-21 17 -22
19 -5 15 16 -5 23 1 34 25 7 17 43 81 78 142 36 62 85 147 110 190 42 72 63
89 63 49 0 -10 -11 -33 -23 -52 -13 -19 -32 -48 -42 -65 l-19 -30 37 34 c20
19 37 31 37 27 0 -4 16 1 35 13 23 13 37 16 41 9 4 -6 24 -8 53 -4 113 17 108
17 141 -21 17 -19 43 -61 58 -92 15 -31 30 -57 33 -59 4 -2 15 -30 25 -62 12
-37 24 -58 31 -55 7 2 21 -8 31 -22 18 -25 19 -26 63 -11 60 20 93 67 86 126
-3 24 -14 53 -25 65 -11 12 -33 49 -50 82 -47 94 -115 177 -217 266 -104 90
-137 128 -163 190 l-18 42 -39 -69 c-39 -67 -66 -97 -266 -290 -103 -99 -156
-177 -174 -257 l-12 -52 -8 37 c-4 21 -6 73 -4 116 3 66 10 90 42 156 40 80
96 143 254 286 117 106 112 130 -53 241 -122 83 -182 147 -231 246 -36 73 -38
82 -38 172 0 81 4 105 25 151 l25 55 5 -95 c4 -80 9 -102 32 -142z m1195 132
c18 -11 35 -31 39 -45 13 -54 -38 -115 -96 -115 -12 0 -35 13 -51 29 -41 41
-40 90 2 125 37 31 63 33 106 6z m-1540 -12 c14 -13 23 -33 23 -50 0 -36 -40
-78 -75 -78 -35 0 -75 42 -75 78 0 64 79 95 127 50z m1557 -1259 c28 -33 32
-55 15 -92 -37 -82 -163 -53 -163 37 0 82 96 117 148 55z"/>
</g>
</svg>
